<?xml version="1.0" encoding="UTF-8"?>
<svg version="1.1" xmlns="http://www.w3.org/2000/svg" width="1333" height="252">
<path d="M0 0 C1.23002706 -0.00935994 1.23002706 -0.00935994 2.48490316 -0.01890898 C5.21259047 -0.03477094 7.9393757 -0.02226188 10.66706848 -0.00964355 C12.63055947 -0.01506757 14.59404639 -0.0221918 16.55752563 -0.03088379 C21.8755018 -0.04908308 27.19316677 -0.04206451 32.51114821 -0.02936745 C38.0795129 -0.01922653 43.64785129 -0.02863576 49.21621704 -0.03491211 C58.56316403 -0.0421835 67.90998447 -0.03261219 77.25691223 -0.0135498 C88.06455901 0.008237 98.87190415 0.00115232 109.67954367 -0.02085543 C118.96211047 -0.03900107 128.24458643 -0.0415724 137.52716523 -0.03110075 C143.07000158 -0.02486371 148.61269606 -0.02403646 154.1555233 -0.0372467 C159.36361145 -0.04879303 164.57130999 -0.04080161 169.779356 -0.01766968 C171.69136152 -0.01237692 173.60339978 -0.01390603 175.5153923 -0.02272034 C178.12357984 -0.03363659 180.73051549 -0.01996042 183.33862305 0 C184.47587579 -0.01338433 184.47587579 -0.01338433 185.63610333 -0.02703905 C190.52648943 0.04565798 193.05095664 1.01409689 196.47883606 4.50793457 C197.68205837 6.9143792 197.62474033 8.46552674 197.65583801 11.15368652 C197.67509087 12.60077751 197.67509087 12.60077751 197.69473267 14.07710266 C197.7021196 15.12291 197.70950653 16.16871735 197.71711731 17.24621582 C197.72518906 18.31913376 197.7332608 19.3920517 197.74157715 20.4974823 C197.75542466 22.77137635 197.76614382 25.04529124 197.77400208 27.31921387 C197.79121476 30.79593319 197.83509594 34.27170177 197.87922668 37.74816895 C197.88935341 39.95584423 197.89786957 42.16352762 197.90461731 44.37121582 C197.9221254 45.41095047 197.93963348 46.45068512 197.95767212 47.52192688 C197.93595146 54.75468305 197.93595146 54.75468305 195.57722473 58.64147949 C192.03640137 61.79093785 189.84065938 61.63184836 185.16410828 61.62818909 C184.50903105 61.62904351 183.85395382 61.62989794 183.17902577 61.63077825 C180.97408485 61.63243128 178.76921925 61.62691458 176.56428528 61.62145996 C174.98765566 61.62117802 173.41102591 61.62133595 171.83439636 61.62190247 C167.54538395 61.62219019 163.25639933 61.61629748 158.9673934 61.60932851 C154.48839044 61.60309083 150.00938688 61.60249084 145.53038025 61.6013031 C137.04477492 61.59819101 128.55918243 61.58997926 120.07358277 61.57995361 C110.41471345 61.56878869 100.75584353 61.56328107 91.09696937 61.55825818 C71.2242495 61.54779655 51.35154724 61.52945258 31.47883606 61.50793457 C31.80883606 72.39793457 32.13883606 83.28793457 32.47883606 94.50793457 C33.13883606 94.17793457 33.79883606 93.84793457 34.47883606 93.50793457 C36.29192788 93.4059983 38.10877431 93.36845226 39.92471313 93.36076355 C41.65972832 93.35003059 41.65972832 93.35003059 43.42979431 93.33908081 C44.70515045 93.33639191 45.98050659 93.333703 47.29450989 93.33093262 C48.64628271 93.32466865 49.9980538 93.3180219 51.349823 93.3110199 C55.02760294 93.29360425 58.70536989 93.28305663 62.38318086 93.27481437 C64.68046116 93.26966544 66.97773742 93.26358966 69.27501488 93.25730324 C76.46125927 93.23824964 83.64749337 93.22401882 90.83375818 93.21569127 C99.13173279 93.20591696 107.42944079 93.17959332 115.72732145 93.13919038 C122.13927876 93.10904047 128.55115961 93.09422348 134.96318644 93.09091026 C138.79367086 93.08855848 142.6238705 93.07958199 146.45427895 93.05444908 C150.05848669 93.03118265 153.66222187 93.02692899 157.26648521 93.03721046 C159.21812862 93.03794254 161.16974795 93.01884118 163.12129211 92.99914551 C164.86899651 93.00956123 164.86899651 93.00956123 166.65200806 93.02018738 C168.16768734 93.01660485 168.16768734 93.01660485 169.7139864 93.01294994 C173.23378631 93.64309156 174.91639856 95.06649843 177.47883606 97.50793457 C178.68386198 99.91798641 178.61836752 101.46156238 178.63996887 104.15368652 C178.64957642 105.11841385 178.65918396 106.08314117 178.66908264 107.07710266 C178.67545746 108.64581367 178.67545746 108.64581367 178.68196106 110.24621582 C178.68766113 111.31913376 178.69336121 112.3920517 178.69923401 113.4974823 C178.70869289 115.77138276 178.7152215 118.04529699 178.71907043 120.31921387 C178.72876728 123.79577632 178.75977928 127.27174555 178.79133606 130.74816895 C178.79786685 132.95584772 178.80311702 135.16353073 178.80696106 137.37121582 C178.81930786 138.41095047 178.83165466 139.45068512 178.84437561 140.52192688 C178.8158362 149.78607713 178.8158362 149.78607713 175.47883606 153.50793457 C172.22642866 155.55281355 169.66749179 155.75901481 165.86164856 155.76190186 C164.71760559 155.7675415 163.57356262 155.77318115 162.39485168 155.7789917 C160.51829895 155.77291901 160.51829895 155.77291901 158.60383606 155.76672363 C157.26984974 155.7694344 155.93586492 155.77299582 154.60188293 155.77734375 C150.98209461 155.78645985 147.36242032 155.78292673 143.74263 155.77658558 C139.95417473 155.77152156 136.16572922 155.77621815 132.37727356 155.77935791 C126.01527656 155.78299638 119.65332601 155.77820158 113.29133606 155.76867676 C105.93634825 155.75779242 98.58147133 155.76131808 91.22648621 155.77232957 C84.91131135 155.78140584 78.59616987 155.78268606 72.2809906 155.77745223 C68.50935549 155.7743344 64.7377725 155.77391806 60.96614075 155.78052521 C57.42027089 155.78630299 53.87454399 155.78229392 50.32868958 155.77073669 C48.40673519 155.76683113 46.48476872 155.7727721 44.56282043 155.7789917 C42.84675598 155.77053223 42.84675598 155.77053223 41.09602356 155.76190186 C39.60498108 155.76077078 39.60498108 155.76077078 38.08381653 155.75961685 C35.41111607 155.50139175 33.76698284 154.87356737 31.47883606 153.50793457 C31.57245571 157.58343398 31.67856767 161.65839793 31.79621887 165.73327637 C31.83447956 167.11925364 31.86933762 168.50532922 31.90071106 169.89147949 C31.94642305 171.88495097 32.00542531 173.87810371 32.06477356 175.87121582 C32.09619446 177.07044678 32.12761536 178.26967773 32.1599884 179.50524902 C32.263131 182.68676163 32.263131 182.68676163 34.47883606 185.50793457 C39.04966376 186.47584861 43.52441258 186.63544846 48.18482971 186.64596558 C49.49431076 186.65141891 50.80379181 186.65687225 52.1529541 186.66249084 C53.58677668 186.66361032 55.02059932 186.66466089 56.454422 186.66564941 C57.97766261 186.67032296 59.50090184 186.67546741 61.0241394 186.68104553 C64.29363116 186.69228469 67.56311402 186.70073856 70.83261871 186.70716476 C76.00079716 186.71787669 81.16891092 186.73812655 86.33705139 186.76028442 C101.02930259 186.82211274 115.72154822 186.87630514 130.41389465 186.90930176 C138.53637838 186.9276231 146.65875203 186.95651867 154.78115487 186.99730647 C159.07754289 187.0184011 163.37379213 187.03383737 167.67023468 187.03611374 C171.70539685 187.03825462 175.74026902 187.05406595 179.77534294 187.08050346 C181.25762523 187.08771669 182.73994257 187.08978767 184.22223854 187.08640099 C186.24177163 187.08252291 188.26131389 187.0986802 190.28077698 187.11593628 C191.97752626 187.1209015 191.97752626 187.1209015 193.70855331 187.12596703 C196.47883606 187.50793457 196.47883606 187.50793457 198.36621475 188.90743446 C199.47883606 190.50793457 199.47883606 190.50793457 199.47883606 192.50793457 C200.13883606 192.50793457 200.79883606 192.50793457 201.47883606 192.50793457 C202.78352356 193.76574707 202.78352356 193.76574707 204.35383606 195.63293457 C204.96227356 196.34836426 205.57071106 197.06379395 206.19758606 197.80090332 C206.95039856 198.69422363 207.70321106 199.58754395 208.47883606 200.50793457 C210.05343698 202.35032124 211.63142215 204.18977311 213.20979309 206.02893066 C214.30048844 207.30038277 215.39001918 208.5728349 216.47834778 209.84631348 C218.90583085 212.74336632 218.90583085 212.74336632 221.47883606 215.50793457 C221.9295695 218.8228223 221.741845 220.14187885 219.76399231 222.89465332 C219.03051575 223.65391113 218.29703918 224.41316895 217.54133606 225.19543457 C214.66162907 228.10690624 214.66162907 228.10690624 212.47883606 231.50793457 C211.81883606 231.50793457 211.15883606 231.50793457 210.47883606 231.50793457 C210.23133606 232.06480957 209.98383606 232.62168457 209.72883606 233.19543457 C207.12551138 238.01158523 203.37251667 241.71409193 199.47883606 245.50793457 C199.07032756 246.04392304 198.66181906 246.57991152 198.24093151 247.13214207 C195.53956204 249.2412922 193.23542904 248.88884159 189.84780884 248.89561462 C188.83184231 248.90369293 188.83184231 248.90369293 187.79535121 248.91193444 C185.52014764 248.92626918 183.24552143 248.91909665 180.97029114 248.9119873 C179.34065278 248.91768867 177.71101842 248.92465202 176.08139038 248.93278503 C171.64669361 248.95077482 167.21219413 248.94953508 162.77747178 248.94384265 C159.06821986 248.94075373 155.35900599 248.9468412 151.64975947 248.9528814 C142.88450099 248.96694919 134.11933986 248.96535162 125.3540802 248.95397949 C116.34231237 248.942545 107.33084377 248.95648972 98.31911546 248.98337597 C90.5659816 249.0056327 82.81294094 249.01214657 75.05977744 249.00629956 C70.43702435 249.00294655 65.81446218 249.0052315 61.19173622 249.02255058 C56.83071381 249.03817291 52.47012745 249.03389736 48.10912132 249.01524544 C46.52102102 249.01159881 44.93288736 249.01455112 43.34481812 249.02513123 C22.70786261 249.15195325 2.98905545 243.81996004 -12.11882019 228.93371582 C-13.70097327 227.19123789 -15.11557884 225.39635425 -16.52116394 223.50793457 C-17.51309753 222.17762207 -17.51309753 222.17762207 -18.52507019 220.82043457 C-25.79350672 210.54021494 -29.61923816 200.01108782 -29.67506409 187.40620422 C-29.67944634 186.7025332 -29.68382859 185.99886217 -29.68834364 185.27386779 C-29.70167098 182.92195559 -29.70789677 180.5700808 -29.71403503 178.21813965 C-29.72194075 176.5292138 -29.73020999 174.84028962 -29.73881531 173.15136719 C-29.76497966 167.61008302 -29.78033669 162.0687915 -29.79460144 156.52746582 C-29.79996329 154.61679263 -29.8053408 152.70611949 -29.8107338 150.7954464 C-29.8323537 142.84570501 -29.85108925 134.8959656 -29.86235619 126.94620228 C-29.87858968 115.56871776 -29.91176316 104.191575 -29.96875703 92.8142193 C-30.00750293 84.80553589 -30.02699434 76.79694373 -30.03227675 68.78816909 C-30.03592362 64.00905829 -30.04787432 59.23031249 -30.08037949 54.45130348 C-30.11054235 49.95236551 -30.11674282 45.45401184 -30.10499573 40.9549942 C-30.10477568 39.30952204 -30.11302319 37.6640221 -30.13064957 36.01864433 C-30.23302554 25.90669159 -29.82618142 17.19500569 -22.5605526 9.40612507 C-15.94713693 3.07375418 -9.13252708 -0.10843789 0 0 Z " fill="#000000" transform="translate(1075.5211639404297,-0.5079345703125)"/>
<path d="M0 0 C1.76339218 -0.01029488 1.76339218 -0.01029488 3.56240845 -0.02079773 C7.41909126 -0.03898303 11.2753639 -0.03523868 15.13208008 -0.02954102 C17.15119549 -0.03202285 19.17030112 -0.03637154 21.18941289 -0.04089409 C27.53175592 -0.05488876 33.87396413 -0.05342259 40.21630859 -0.04199219 C46.71528989 -0.03053679 53.21385725 -0.04455442 59.71278399 -0.07138866 C65.33022367 -0.09369748 70.94753488 -0.10014863 76.56501561 -0.09431225 C79.90335235 -0.09097481 83.24121549 -0.09489919 86.57954979 -0.11056328 C103.66611797 -0.17943053 119.81476409 -0.09227908 135.21411133 8.27905273 C135.87934814 8.62709961 136.54458496 8.97514648 137.22998047 9.33374023 C142.09773597 11.93529641 146.52634997 14.79613525 150.71411133 18.40405273 C151.41407227 18.95061523 152.1140332 19.49717773 152.83520508 20.06030273 C169.38124849 33.59536771 179.42147931 55.50651109 181.53540039 76.54760742 C181.91343517 82.58996657 181.90003319 88.6428078 181.89941406 94.69482422 C181.90159046 97.06878882 181.91976903 99.44227993 181.9387207 101.81616211 C182.02926037 126.01643668 176.49114144 148.19995572 159.71411133 166.40405273 C156.22833043 169.68363251 152.58016987 172.58768071 148.71411133 175.40405273 C148.0102832 175.94416992 147.30645508 176.48428711 146.58129883 177.04077148 C131.56822526 187.91526014 113.31289787 192.57113626 95.03710938 192.53344727 C93.98591415 192.53519958 92.93471893 192.5369519 91.85166931 192.53875732 C88.39303922 192.54314253 84.93446064 192.54025065 81.47583008 192.53686523 C79.0692392 192.53753898 76.66264839 192.53850959 74.25605774 192.5397644 C69.22180531 192.54123664 64.18757067 192.53910108 59.15332031 192.53442383 C52.6888803 192.52871148 46.22448166 192.53201805 39.76004314 192.53799629 C34.79567653 192.54160161 29.8313198 192.54046372 24.8669529 192.5378685 C22.48222664 192.53719994 20.0974995 192.53802518 17.71277428 192.54034805 C14.38987198 192.54287573 11.06703782 192.53903302 7.74414062 192.53344727 C6.25660278 192.53648361 6.25660278 192.53648361 4.73901367 192.5395813 C3.3869709 192.53535156 3.3869709 192.53535156 2.00761414 192.53103638 C1.22212031 192.53065935 0.43662649 192.53028233 -0.37267017 192.52989388 C-2.28588867 192.40405273 -2.28588867 192.40405273 -4.28588867 191.40405273 C-4.2895343 192.03188156 -4.29317993 192.65971039 -4.29693604 193.30656433 C-4.33876447 199.84440046 -4.40811278 206.38153479 -4.4934082 212.91894531 C-4.52162415 215.35832702 -4.54283552 217.79780026 -4.55688477 220.23730469 C-4.57830477 223.74518722 -4.62495302 227.25196845 -4.67651367 230.75952148 C-4.67774231 231.8492778 -4.67897095 232.93903412 -4.68023682 234.06181335 C-4.82672449 241.64434578 -4.82672449 241.64434578 -7.19897461 245.56933594 C-10.25852683 248.25915051 -11.94626117 248.53495027 -15.93164062 248.58105469 C-16.89636795 248.59388992 -17.86109528 248.60672516 -18.85505676 248.61994934 C-19.90086411 248.62733627 -20.94667145 248.63472321 -22.02416992 248.64233398 C-23.09708786 248.65040573 -24.1700058 248.65847748 -25.2754364 248.66679382 C-27.54933045 248.68064134 -29.82324534 248.69136049 -32.09716797 248.69921875 C-35.57388729 248.71643143 -39.04965587 248.76031262 -42.52612305 248.80444336 C-44.73379834 248.81457008 -46.94148172 248.82308625 -49.14916992 248.82983398 C-50.18890457 248.84734207 -51.22863922 248.86485016 -52.29988098 248.88288879 C-59.53263715 248.86116813 -59.53263715 248.86116813 -63.41943359 246.50244141 C-66.69474138 242.82013004 -66.43199611 239.78589733 -66.42633057 235.06912231 C-66.42930169 234.30408886 -66.43227281 233.5390554 -66.43533397 232.75083911 C-66.44404345 230.17315591 -66.44553115 227.59551904 -66.44702148 225.01782227 C-66.45164835 223.17495117 -66.45667283 221.33208104 -66.46206665 219.48921204 C-66.47521193 214.47009013 -66.48164063 209.45098162 -66.48607731 204.43184519 C-66.48900675 201.29428203 -66.49311148 198.15672254 -66.49758148 195.01916122 C-66.51126672 185.19792514 -66.52092635 175.37669743 -66.52478337 165.55545247 C-66.52925618 154.22845832 -66.54676356 142.90158532 -66.57578397 131.574628 C-66.59744195 122.81608368 -66.60748997 114.05757332 -66.60882449 105.29900253 C-66.60987027 100.07052513 -66.61572879 94.84216145 -66.6336441 89.61371231 C-66.65019426 84.68729176 -66.65224671 79.76106951 -66.6435051 74.83463097 C-66.64273822 73.03360015 -66.6470309 71.23255838 -66.65696335 69.43155479 C-66.7643787 48.72700734 -61.82003768 32.95414287 -47.07495117 18.02905273 C-33.91131126 5.63974458 -17.90943239 -0.07427473 0 0 Z M-4.28588867 63.40405273 C-5.71374217 66.25975973 -5.40530354 68.6811963 -5.39941406 71.87329102 C-5.39956009 72.53682587 -5.39970612 73.20036072 -5.39985657 73.88400269 C-5.39915898 76.08082327 -5.39137381 78.27755943 -5.38354492 80.47436523 C-5.38168019 81.99608311 -5.38025655 83.51780158 -5.3792572 85.03952026 C-5.37543634 89.0475632 -5.36560972 93.05556999 -5.35455322 97.06359863 C-5.34432985 101.15233877 -5.33975759 105.24108475 -5.3347168 109.32983398 C-5.32398707 117.35459017 -5.3069158 125.37931696 -5.28588867 133.40405273 C-3.80088867 132.90905273 -3.80088867 132.90905273 -2.28588867 132.40405273 C0.64264007 132.29883683 3.5483465 132.24993906 6.47729492 132.24633789 C7.37368683 132.24125717 8.27007874 132.23617645 9.19363403 132.23094177 C11.14320267 132.22023386 13.09278363 132.21161533 15.04236984 132.20482254 C18.1378999 132.19301856 21.23329138 132.17355742 24.32876587 132.15170288 C33.13148306 132.09016818 41.93418876 132.03622987 50.73706055 132.00268555 C56.1223089 131.98161304 61.50730875 131.94620099 66.89241409 131.90192795 C68.93587928 131.8878569 70.97938849 131.87906583 73.02289963 131.87587357 C95.85617997 132.0652499 95.85617997 132.0652499 115.31958008 121.39233398 C120.36833755 114.19396548 120.20313685 106.63234237 120.15161133 98.15405273 C120.1715918 97.00291992 120.19157227 95.85178711 120.2121582 94.66577148 C120.2070691 85.6377104 119.09009909 76.66845833 113.33911133 69.40405273 C112.47286133 68.74405273 111.60661133 68.08405273 110.71411133 67.40405273 C109.78598633 66.68217773 108.85786133 65.96030273 107.90161133 65.21655273 C101.19346067 61.40211412 94.4945791 61.11030527 86.96508789 61.14526367 C86.0242485 61.14175903 85.08340912 61.13825439 84.11405945 61.13464355 C81.02754172 61.12589431 77.94125608 61.13164936 74.85473633 61.13842773 C72.70098832 61.13707958 70.54724062 61.1351378 68.39349365 61.13262939 C63.89144986 61.12968775 59.38948568 61.13394661 54.88745117 61.14331055 C49.11484607 61.15473196 43.34242641 61.14812251 37.56982803 61.13616562 C33.12779335 61.12894454 28.68580278 61.13123563 24.24376678 61.1364212 C22.11468229 61.13775559 19.9855938 61.13611737 17.85651398 61.1314621 C14.88608649 61.12638986 11.91596155 61.13411582 8.94555664 61.14526367 C7.62544838 61.13919098 7.62544838 61.13919098 6.27867126 61.13299561 C5.06350578 61.14145508 5.06350578 61.14145508 3.8237915 61.15008545 C3.12255787 61.1508395 2.42132423 61.15159355 1.69884109 61.15237045 C-0.66631082 61.45229382 -2.25996836 62.1596204 -4.28588867 63.40405273 Z " fill="#000000" transform="translate(840.285888671875,-0.404052734375)"/>
<path d="M0 0 C1.03017164 -0.00551503 1.03017164 -0.00551503 2.08115482 -0.01114148 C4.3756441 -0.02212876 6.67008802 -0.0260136 8.96459961 -0.02983093 C10.61237734 -0.03609903 12.26015367 -0.04274614 13.90792847 -0.04974365 C19.31092351 -0.07073476 24.71391869 -0.08113732 30.11694336 -0.09111023 C31.97820043 -0.0951588 33.83945735 -0.09927575 35.70071411 -0.10346031 C44.44070252 -0.12249639 53.18068253 -0.1367341 61.92068768 -0.14507228 C72.00995671 -0.15485715 82.09900709 -0.18121578 92.18819904 -0.22157317 C99.98873997 -0.25170628 107.78921808 -0.26653825 115.58981609 -0.26985329 C120.24854433 -0.2722058 124.90703852 -0.28119322 129.56570435 -0.30631447 C133.94556045 -0.32955301 138.32502764 -0.33384557 142.70492935 -0.32355309 C144.31217872 -0.32305668 145.91944699 -0.32940789 147.52663803 -0.34310913 C149.72118901 -0.3607714 151.91433534 -0.35375172 154.10888672 -0.34057617 C155.33667343 -0.34296453 156.56446014 -0.34535288 157.82945251 -0.34781361 C161.66816909 0.24136813 163.31373307 1.45009636 166.05444336 4.14717102 C167.25766567 6.55361565 167.20034763 8.10476319 167.23144531 10.79292297 C167.24428055 11.7576503 167.25711578 12.72237762 167.27033997 13.71633911 C167.28142036 15.28505013 167.28142036 15.28505013 167.29272461 16.88545227 C167.30079636 17.95837021 167.3088681 19.03128815 167.31718445 20.13671875 C167.33103196 22.4106128 167.34175112 24.68452769 167.34960938 26.95845032 C167.36682206 30.43516964 167.41070324 33.91093822 167.45483398 37.3874054 C167.46496071 39.59508068 167.47347687 41.80276407 167.48022461 44.01045227 C167.4977327 45.05018692 167.51524078 46.08992157 167.53327942 47.16116333 C167.51155876 54.3939195 167.51155876 54.3939195 165.15283203 58.28071594 C161.67229034 61.37655553 159.54306359 61.27784501 154.94972229 61.29866028 C152.9958107 61.31117577 152.9958107 61.31117577 151.00242615 61.32394409 C149.5504458 61.32825384 148.0984652 61.33247762 146.64648438 61.33662415 C145.1239804 61.34456378 143.60147871 61.35295151 142.07897949 61.36175537 C138.79576336 61.37983402 135.51255233 61.39484192 132.22931099 61.40753174 C127.04053143 61.42772179 121.85180844 61.45537859 116.66307068 61.48420715 C105.64772137 61.54434739 94.63233817 61.59616275 83.61694336 61.64717102 C71.72976359 61.70222875 59.84260095 61.75869914 47.95547622 61.82471991 C42.79474481 61.85309802 37.63402009 61.87668389 32.47324955 61.89664459 C29.26528175 61.91001848 26.05734519 61.9274318 22.84940338 61.94595528 C21.35905433 61.95372032 19.86869533 61.95978596 18.37833214 61.96404839 C16.34758571 61.9700841 14.31686199 61.98270243 12.28614807 61.99568176 C10.57965765 62.00341236 10.57965765 62.00341236 8.83869267 62.01129913 C5.96877588 62.02594296 5.96877588 62.02594296 3.05444336 63.14717102 C1.83725625 65.58154524 1.92864473 67.13292104 1.92745972 69.85395813 C1.92463989 70.84668732 1.92182007 71.8394165 1.91891479 72.86222839 C1.92093903 73.9552829 1.92296326 75.0483374 1.92504883 76.17451477 C1.92329651 77.32251556 1.92154419 78.47051636 1.91973877 79.65330505 C1.91532258 83.46377557 1.91825745 87.2742 1.92163086 91.08467102 C1.92095775 93.72261056 1.91998767 96.36055005 1.91873169 98.99848938 C1.91691108 104.53340661 1.91931346 110.0683105 1.92407227 115.60322571 C1.92951468 122.00729026 1.92775195 128.41132299 1.92224586 134.81538677 C1.91716591 140.96953441 1.91769746 147.12366791 1.92062759 153.27781677 C1.92129662 155.8997854 1.92046927 158.52175484 1.91814804 161.14372253 C1.91562013 164.80244629 1.91946412 168.46110815 1.92504883 172.11982727 C1.92201248 173.75940903 1.92201248 173.75940903 1.91891479 175.43211365 C1.92314453 176.92120743 1.92314453 176.92120743 1.92745972 178.44038391 C1.92783674 179.30611526 1.92821377 180.17184662 1.92860222 181.06381226 C1.92134586 183.20803618 1.92134586 183.20803618 3.05444336 185.14717102 C10.49539565 186.60256211 18.09996357 186.29225267 25.65283203 186.28901672 C27.12371423 186.29205279 28.59459549 186.29557547 30.06547546 186.29954529 C33.21926666 186.30739707 36.37304674 186.31256492 39.52684593 186.31583595 C44.51502782 186.32177254 49.5031394 186.33833517 54.49128723 186.35717773 C56.2021627 186.3635138 57.91303822 186.36983944 59.62391376 186.3761549 C60.48026027 186.37932071 61.33660678 186.38248652 62.21890318 186.38574827 C73.82251847 186.42777074 85.42609872 186.46083028 97.02978516 186.47309875 C104.87141855 186.48147449 112.71287529 186.5039389 120.55442029 186.54245442 C124.69999375 186.5622159 128.84530316 186.57461901 132.99092674 186.56962013 C136.88583072 186.56497974 140.78023272 186.57874497 144.67503548 186.60663223 C146.10326362 186.6135518 147.53154359 186.61366228 148.9597702 186.60643196 C150.91065761 186.59755323 152.86161199 186.61557563 154.81242371 186.63491821 C156.44915181 186.63850074 156.44915181 186.63850074 158.11894512 186.64215565 C161.75201689 187.26717973 163.42559492 188.61439405 166.05444336 191.14717102 C167.25766567 193.55361565 167.20034763 195.10476319 167.23144531 197.79292297 C167.24428055 198.7576503 167.25711578 199.72237762 167.27033997 200.71633911 C167.28142036 202.28505013 167.28142036 202.28505013 167.29272461 203.88545227 C167.30079636 204.95837021 167.3088681 206.03128815 167.31718445 207.13671875 C167.33103196 209.4106128 167.34175112 211.68452769 167.34960938 213.95845032 C167.36682206 217.43516964 167.41070324 220.91093822 167.45483398 224.3874054 C167.46496071 226.59508068 167.47347687 228.80276407 167.48022461 231.01045227 C167.4977327 232.05018692 167.51524078 233.08992157 167.53327942 234.16116333 C167.51155876 241.3939195 167.51155876 241.3939195 165.15283203 245.28071594 C161.60667095 248.43492205 159.3805049 248.27747171 154.69552612 248.29434204 C154.03540374 248.29801873 153.37528136 248.30169542 152.69515526 248.30548352 C150.47229951 248.31653896 148.24949049 248.32036753 146.02661133 248.32417297 C144.43653209 248.33043686 142.84645433 248.33708359 141.25637817 248.34408569 C136.01980616 248.36515973 130.78323378 248.37549986 125.54663086 248.38545227 C123.74103912 248.38950036 121.93544754 248.39361729 120.12985611 248.39780235 C111.6359793 248.41687132 103.1421112 248.43109162 94.64821708 248.43941432 C84.86918674 248.44915538 75.09038466 248.4753853 65.31143463 248.51591522 C57.740929 248.54620456 50.17048824 248.56089578 42.59992325 248.56419533 C38.08555427 248.56653376 33.5714286 248.57533339 29.05712509 248.60065651 C24.79710511 248.6241635 20.53748458 248.62808099 16.27741623 248.61789513 C14.7263912 248.61740489 13.17534502 248.62357131 11.62438202 248.63745117 C-1.87641482 248.75135738 -15.56195152 247.15655437 -27.32055664 239.95967102 C-27.97846191 239.57238831 -28.63636719 239.18510559 -29.31420898 238.78608704 C-42.91820786 230.52258367 -54.23166748 217.69231928 -58.51293945 202.07783508 C-59.7196717 196.67877012 -60.66259758 191.182986 -61.17602539 185.67451477 C-61.8705431 180.61158131 -64.49799283 178.54020522 -68.25805664 175.45967102 C-69.20293945 174.75455383 -70.14782227 174.04943665 -71.12133789 173.32295227 C-73.98273577 171.11852818 -76.43726346 168.74107148 -78.94555664 166.14717102 C-79.70868164 165.42529602 -80.47180664 164.70342102 -81.25805664 163.95967102 C-82.94555664 162.14717102 -82.94555664 162.14717102 -82.94555664 160.14717102 C-84.59555664 159.48717102 -86.24555664 158.82717102 -87.94555664 158.14717102 C-87.94555664 157.15717102 -87.94555664 156.16717102 -87.94555664 155.14717102 C-88.60555664 155.14717102 -89.26555664 155.14717102 -89.94555664 155.14717102 C-89.94555664 154.48717102 -89.94555664 153.82717102 -89.94555664 153.14717102 C-90.50243164 153.08529602 -91.05930664 153.02342102 -91.63305664 152.95967102 C-94.91755539 151.80565795 -96.59998648 149.67316965 -98.94555664 147.14717102 C-99.54368164 146.59029602 -100.14180664 146.03342102 -100.75805664 145.45967102 C-101.94555664 144.14717102 -101.94555664 144.14717102 -101.94555664 142.14717102 C-102.60555664 142.14717102 -103.26555664 142.14717102 -103.94555664 142.14717102 C-103.94555664 141.48717102 -103.94555664 140.82717102 -103.94555664 140.14717102 C-104.93555664 140.14717102 -105.92555664 140.14717102 -106.94555664 140.14717102 C-108.24700045 138.68304674 -109.54198433 137.20902281 -110.73461914 135.65498352 C-111.93633653 134.03625783 -111.93633653 134.03625783 -113.82055664 132.70967102 C-114.94555664 131.14717102 -114.94555664 131.14717102 -115.13305664 127.89717102 C-113.45699457 122.60434344 -110.1884795 120.50447431 -105.94555664 117.14717102 C-105.05868164 116.26029602 -104.17180664 115.37342102 -103.25805664 114.45967102 C-100.93872036 112.14033474 -98.59509437 110.08061747 -95.94555664 108.14717102 C-95.28555664 108.14717102 -94.62555664 108.14717102 -93.94555664 108.14717102 C-93.69805664 107.34279602 -93.45055664 106.53842102 -93.19555664 105.70967102 C-92.78305664 104.86404602 -92.37055664 104.01842102 -91.94555664 103.14717102 C-90.62251947 102.77506682 -89.28817729 102.44086929 -87.94555664 102.14717102 C-87.26185214 100.82249356 -86.59591479 99.48853469 -85.94555664 98.14717102 C-84.62035161 97.46448964 -83.28743483 96.79646692 -81.94555664 96.14717102 C-81.45055664 94.66217102 -81.45055664 94.66217102 -80.94555664 93.14717102 C-79.27368164 91.49873352 -79.27368164 91.49873352 -77.19555664 89.77217102 C-74.70439318 87.66941476 -72.31787136 85.57137002 -70.07055664 83.20967102 C-67.94555664 81.14717102 -67.94555664 81.14717102 -65.94555664 81.14717102 C-65.28555664 79.82717102 -64.62555664 78.50717102 -63.94555664 77.14717102 C-63.28555664 77.14717102 -62.62555664 77.14717102 -61.94555664 77.14717102 C-61.91115479 76.49869202 -61.87675293 75.85021301 -61.84130859 75.18208313 C-60.53626608 52.32866416 -56.37914276 31.98397603 -39.07446289 15.69013977 C-31.34765382 9.14976008 -21.8675727 3.39669693 -11.94555664 1.14717102 C-11.22400894 0.97618299 -10.50246124 0.80519495 -9.75904846 0.62902546 C-6.46327934 0.0645735 -3.34487055 0.01164228 0 0 Z " fill="#000000" transform="translate(478.945556640625,-0.1471710205078125)"/>
<path d="M0 0 C0.81185257 -0.00671722 1.62370514 -0.01343445 2.4601593 -0.02035522 C5.14155206 -0.03933966 7.82269463 -0.04325946 10.50415039 -0.04541016 C12.36975711 -0.05183715 14.23536281 -0.05856544 16.10096741 -0.06558228 C20.01069476 -0.0775557 23.92033373 -0.08126297 27.83007812 -0.08007812 C32.83834517 -0.07987479 37.84604571 -0.10719172 42.85417843 -0.14162254 C46.70694072 -0.16386498 50.55956602 -0.1679165 54.41238594 -0.16685867 C56.25876381 -0.16921807 58.10514526 -0.17806062 59.95145988 -0.19352341 C62.53444958 -0.21313243 65.116209 -0.20736613 67.69921875 -0.1953125 C68.46042023 -0.20655151 69.2216217 -0.21779053 70.00588989 -0.22937012 C74.92678848 -0.17105344 77.4683671 0.76793837 80.91430664 4.29052734 C82.19713027 6.85617459 82.11822617 8.80085803 82.16430664 11.66552734 C82.20297852 13.10025391 82.20297852 13.10025391 82.24243164 14.56396484 C81.86565514 17.69479815 81.10069849 19.05106773 78.91430664 21.29052734 C78.25430664 21.29052734 77.59430664 21.29052734 76.91430664 21.29052734 C76.91430664 21.95052734 76.91430664 22.61052734 76.91430664 23.29052734 C76.25430664 23.29052734 75.59430664 23.29052734 74.91430664 23.29052734 C74.6887207 23.84482422 74.46313477 24.39912109 74.23071289 24.97021484 C72.52564378 27.97558889 70.33630713 30.02039737 67.85180664 32.41552734 C64.44977181 35.531585 64.44977181 35.531585 61.91430664 39.29052734 C61.25430664 39.29052734 60.59430664 39.29052734 59.91430664 39.29052734 C59.91430664 39.95052734 59.91430664 40.61052734 59.91430664 41.29052734 C59.25430664 41.29052734 58.59430664 41.29052734 57.91430664 41.29052734 C57.91430664 41.95052734 57.91430664 42.61052734 57.91430664 43.29052734 C55.53930664 45.91552734 55.53930664 45.91552734 52.91430664 48.29052734 C52.25430664 48.29052734 51.59430664 48.29052734 50.91430664 48.29052734 C50.91430664 48.95052734 50.91430664 49.61052734 50.91430664 50.29052734 C50.25430664 50.29052734 49.59430664 50.29052734 48.91430664 50.29052734 C48.54305664 51.21865234 48.54305664 51.21865234 48.16430664 52.16552734 C46.67690295 54.69411361 45.47752655 55.00891739 42.91430664 56.29052734 C42.21036052 57.6045601 41.55085006 58.94255305 40.91430664 60.29052734 C39.35488369 62.43276493 37.70464559 64.32115449 35.91430664 66.29052734 C35.25430664 66.29052734 34.59430664 66.29052734 33.91430664 66.29052734 C33.91430664 66.95052734 33.91430664 67.61052734 33.91430664 68.29052734 C29.61198106 73.0579692 29.61198106 73.0579692 25.91430664 74.29052734 C25.91430664 74.95052734 25.91430664 75.61052734 25.91430664 76.29052734 C25.25430664 76.29052734 24.59430664 76.29052734 23.91430664 76.29052734 C23.64618164 76.92990234 23.37805664 77.56927734 23.10180664 78.22802734 C21.91430664 80.29052734 21.91430664 80.29052734 18.91430664 81.29052734 C18.91430664 81.95052734 18.91430664 82.61052734 18.91430664 83.29052734 C18.25430664 83.29052734 17.59430664 83.29052734 16.91430664 83.29052734 C16.68743164 83.82677734 16.46055664 84.36302734 16.22680664 84.91552734 C13.19229247 90.40655298 7.93557955 97.28343637 1.91430664 99.29052734 C1.91430664 99.95052734 1.91430664 100.61052734 1.91430664 101.29052734 C1.25430664 101.29052734 0.59430664 101.29052734 -0.08569336 101.29052734 C-0.08569336 101.95052734 -0.08569336 102.61052734 -0.08569336 103.29052734 C-0.74569336 103.29052734 -1.40569336 103.29052734 -2.08569336 103.29052734 C-2.46636963 104.16016113 -2.46636963 104.16016113 -2.85473633 105.04736328 C-4.2232795 107.54124958 -5.75567105 109.18796571 -7.78100586 111.18115234 C-8.49643555 111.89013672 -9.21186523 112.59912109 -9.94897461 113.32958984 C-10.6953418 114.05919922 -11.44170898 114.78880859 -12.21069336 115.54052734 C-12.96479492 116.28560547 -13.71889648 117.03068359 -14.49584961 117.79833984 C-16.35470108 119.63366155 -18.21806341 121.46414644 -20.08569336 123.29052734 C-18.6635102 126.54755251 -16.9403737 128.65051708 -14.39038086 131.11083984 C-13.67495117 131.81080078 -12.95952148 132.51076172 -12.22241211 133.23193359 C-11.10286133 134.3128125 -11.10286133 134.3128125 -9.96069336 135.41552734 C-8.47442188 136.85098612 -6.99240458 138.29086727 -5.51538086 139.73583984 C-4.85779785 140.37021973 -4.20021484 141.00459961 -3.52270508 141.65820312 C-2.08569336 143.29052734 -2.08569336 143.29052734 -2.08569336 145.29052734 C-1.42569336 145.29052734 -0.76569336 145.29052734 -0.08569336 145.29052734 C-0.08569336 145.95052734 -0.08569336 146.61052734 -0.08569336 147.29052734 C0.57430664 147.29052734 1.23430664 147.29052734 1.91430664 147.29052734 C1.91430664 147.95052734 1.91430664 148.61052734 1.91430664 149.29052734 C2.90430664 149.62052734 3.89430664 149.95052734 4.91430664 150.29052734 C6.56274414 151.96240234 6.56274414 151.96240234 8.28930664 154.04052734 C10.3920629 156.53169081 12.49010764 158.91821263 14.85180664 161.16552734 C16.91430664 163.29052734 16.91430664 163.29052734 16.91430664 165.29052734 C17.57430664 165.29052734 18.23430664 165.29052734 18.91430664 165.29052734 C18.91430664 165.95052734 18.91430664 166.61052734 18.91430664 167.29052734 C19.55368164 167.55865234 20.19305664 167.82677734 20.85180664 168.10302734 C22.91430664 169.29052734 22.91430664 169.29052734 23.91430664 172.29052734 C24.57430664 172.29052734 25.23430664 172.29052734 25.91430664 172.29052734 C25.91430664 172.95052734 25.91430664 173.61052734 25.91430664 174.29052734 C26.49180664 174.53802734 27.06930664 174.78552734 27.66430664 175.04052734 C30.24370643 176.47352723 31.97552256 178.07477411 33.91430664 180.29052734 C33.91430664 180.95052734 33.91430664 181.61052734 33.91430664 182.29052734 C34.57430664 182.29052734 35.23430664 182.29052734 35.91430664 182.29052734 C37.64086914 183.97021484 37.64086914 183.97021484 39.53930664 186.16552734 C40.17094727 186.88482422 40.80258789 187.60412109 41.45336914 188.34521484 C42.91430664 190.29052734 42.91430664 190.29052734 42.91430664 192.29052734 C43.53305664 192.53802734 44.15180664 192.78552734 44.78930664 193.04052734 C47.26499351 194.49681374 47.86555667 195.66865241 48.91430664 198.29052734 C49.57430664 198.29052734 50.23430664 198.29052734 50.91430664 198.29052734 C50.91430664 198.95052734 50.91430664 199.61052734 50.91430664 200.29052734 C51.51243164 200.55865234 52.11055664 200.82677734 52.72680664 201.10302734 C54.91278518 202.28970141 56.32763258 203.38651847 57.91430664 205.29052734 C57.91430664 205.95052734 57.91430664 206.61052734 57.91430664 207.29052734 C58.57430664 207.29052734 59.23430664 207.29052734 59.91430664 207.29052734 C59.91430664 207.95052734 59.91430664 208.61052734 59.91430664 209.29052734 C60.57430664 209.29052734 61.23430664 209.29052734 61.91430664 209.29052734 C63.42993164 210.82958984 63.42993164 210.82958984 65.16430664 212.91552734 C67.46090737 215.63100494 69.78581439 218.20314998 72.35180664 220.66552734 C74.91430664 223.29052734 74.91430664 223.29052734 74.91430664 225.29052734 C75.57430664 225.29052734 76.23430664 225.29052734 76.91430664 225.29052734 C76.91430664 225.95052734 76.91430664 226.61052734 76.91430664 227.29052734 C77.90430664 227.62052734 78.89430664 227.95052734 79.91430664 228.29052734 C82.87447308 232.73077701 82.69081675 237.08334193 81.91430664 242.29052734 C79.47680664 245.41552734 79.47680664 245.41552734 76.91430664 247.29052734 C76.58430664 247.62052734 76.25430664 247.95052734 75.91430664 248.29052734 C73.31873023 248.3962646 70.74962596 248.43730808 68.15332031 248.43579102 C66.93378914 248.44082893 66.93378914 248.44082893 65.68962097 248.44596863 C62.98715713 248.45550988 60.28475506 248.4574235 57.58227539 248.45849609 C55.7099861 248.46170709 53.83769707 248.46507104 51.96540833 248.46858215 C48.03357359 248.4745818 44.10176087 248.47642126 40.16992188 248.47583008 C35.12913638 248.47572855 30.08849204 248.48936739 25.04773998 248.50660229 C21.17787528 248.51771757 17.3080447 248.51974941 13.43816566 248.51922035 C11.57981188 248.5204017 9.72145725 248.5248321 7.86311913 248.53255272 C5.26313774 248.5423406 2.66346279 248.53947905 0.06347656 248.53344727 C-0.70603333 248.53906677 -1.47554321 248.54468628 -2.26837158 248.55047607 C-7.40940868 248.52014021 -10.33127783 248.00215225 -14.00756836 244.41552734 C-14.61084961 243.71427734 -15.21413086 243.01302734 -15.83569336 242.29052734 C-16.44928711 241.58927734 -17.06288086 240.88802734 -17.69506836 240.16552734 C-19.08569336 238.29052734 -19.08569336 238.29052734 -19.08569336 236.29052734 C-19.92874023 235.93474609 -19.92874023 235.93474609 -20.78881836 235.57177734 C-23.60463378 234.00105038 -25.56524752 232.0758127 -27.83569336 229.79052734 C-28.63491211 228.99646484 -29.43413086 228.20240234 -30.25756836 227.38427734 C-32.08569336 225.29052734 -32.08569336 225.29052734 -32.08569336 223.29052734 C-32.74569336 223.29052734 -33.40569336 223.29052734 -34.08569336 223.29052734 C-34.08569336 222.63052734 -34.08569336 221.97052734 -34.08569336 221.29052734 C-34.74569336 221.29052734 -35.40569336 221.29052734 -36.08569336 221.29052734 C-36.08569336 220.63052734 -36.08569336 219.97052734 -36.08569336 219.29052734 C-37.07569336 218.96052734 -38.06569336 218.63052734 -39.08569336 218.29052734 C-40.73413086 216.61865234 -40.73413086 216.61865234 -42.46069336 214.54052734 C-44.56344962 212.04936388 -46.66149436 209.66284206 -49.02319336 207.41552734 C-51.08569336 205.29052734 -51.08569336 205.29052734 -51.08569336 203.29052734 C-51.98288086 202.88833984 -51.98288086 202.88833984 -52.89819336 202.47802734 C-55.0841719 201.29135328 -56.4990193 200.19453622 -58.08569336 198.29052734 C-58.08569336 197.63052734 -58.08569336 196.97052734 -58.08569336 196.29052734 C-58.74569336 196.29052734 -59.40569336 196.29052734 -60.08569336 196.29052734 C-60.08569336 195.63052734 -60.08569336 194.97052734 -60.08569336 194.29052734 C-60.95194336 193.91927734 -60.95194336 193.91927734 -61.83569336 193.54052734 C-64.41509315 192.10752746 -66.14690928 190.50628058 -68.08569336 188.29052734 C-68.08569336 187.63052734 -68.08569336 186.97052734 -68.08569336 186.29052734 C-68.74569336 186.29052734 -69.40569336 186.29052734 -70.08569336 186.29052734 C-71.81225586 184.61083984 -71.81225586 184.61083984 -73.71069336 182.41552734 C-74.34233398 181.69623047 -74.97397461 180.97693359 -75.62475586 180.23583984 C-77.08569336 178.29052734 -77.08569336 178.29052734 -77.08569336 176.29052734 C-77.68381836 176.02240234 -78.28194336 175.75427734 -78.89819336 175.47802734 C-81.0841719 174.29135328 -82.4990193 173.19453622 -84.08569336 171.29052734 C-84.08569336 170.63052734 -84.08569336 169.97052734 -84.08569336 169.29052734 C-84.95194336 168.91927734 -84.95194336 168.91927734 -85.83569336 168.54052734 C-88.41509315 167.10752746 -90.14690928 165.50628058 -92.08569336 163.29052734 C-92.08569336 162.63052734 -92.08569336 161.97052734 -92.08569336 161.29052734 C-92.74569336 161.29052734 -93.40569336 161.29052734 -94.08569336 161.29052734 C-95.53100586 159.82177734 -95.53100586 159.82177734 -97.21069336 157.79052734 C-100.46463217 153.94060395 -103.93342054 150.429884 -107.58178711 146.95458984 C-109.08569336 145.29052734 -109.08569336 145.29052734 -109.08569336 143.29052734 C-109.74569336 143.29052734 -110.40569336 143.29052734 -111.08569336 143.29052734 C-111.08569336 142.63052734 -111.08569336 141.97052734 -111.08569336 141.29052734 C-112.04475586 140.88833984 -112.04475586 140.88833984 -113.02319336 140.47802734 C-115.08569336 139.29052734 -115.08569336 139.29052734 -116.08569336 136.29052734 C-116.74569336 136.29052734 -117.40569336 136.29052734 -118.08569336 136.29052734 C-118.08569336 135.63052734 -118.08569336 134.97052734 -118.08569336 134.29052734 C-119.07569336 133.96052734 -120.06569336 133.63052734 -121.08569336 133.29052734 C-124.20783022 127.82678784 -124.48980844 124.40845736 -123.08569336 118.29052734 C-121.64819336 115.79052734 -121.64819336 115.79052734 -120.08569336 114.29052734 C-119.42569336 114.29052734 -118.76569336 114.29052734 -118.08569336 114.29052734 C-118.08569336 113.63052734 -118.08569336 112.97052734 -118.08569336 112.29052734 C-117.42569336 112.29052734 -116.76569336 112.29052734 -116.08569336 112.29052734 C-115.81756836 111.65115234 -115.54944336 111.01177734 -115.27319336 110.35302734 C-114.08569336 108.29052734 -114.08569336 108.29052734 -111.08569336 107.29052734 C-111.08569336 106.63052734 -111.08569336 105.97052734 -111.08569336 105.29052734 C-110.42569336 105.29052734 -109.76569336 105.29052734 -109.08569336 105.29052734 C-108.88073242 104.75685547 -108.67577148 104.22318359 -108.46459961 103.67333984 C-106.5073669 100.291153 -103.82599686 97.86015247 -101.02319336 95.16552734 C-97.08120396 91.59499368 -97.08120396 91.59499368 -94.08569336 87.29052734 C-93.42569336 87.29052734 -92.76569336 87.29052734 -92.08569336 87.29052734 C-92.08569336 86.63052734 -92.08569336 85.97052734 -92.08569336 85.29052734 C-87.78336778 80.52308548 -87.78336778 80.52308548 -84.08569336 79.29052734 C-83.38418184 77.97519324 -82.7204341 76.63935143 -82.08569336 75.29052734 C-80.58569336 73.54052734 -80.58569336 73.54052734 -79.08569336 72.29052734 C-78.42569336 72.29052734 -77.76569336 72.29052734 -77.08569336 72.29052734 C-76.85881836 71.75427734 -76.63194336 71.21802734 -76.39819336 70.66552734 C-74.62999247 67.46592573 -72.54899133 65.00015511 -70.08569336 62.29052734 C-69.42569336 62.29052734 -68.76569336 62.29052734 -68.08569336 62.29052734 C-68.08569336 61.63052734 -68.08569336 60.97052734 -68.08569336 60.29052734 C-63.78336778 55.52308548 -63.78336778 55.52308548 -60.08569336 54.29052734 C-60.08569336 53.63052734 -60.08569336 52.97052734 -60.08569336 52.29052734 C-59.42569336 52.29052734 -58.76569336 52.29052734 -58.08569336 52.29052734 C-57.81756836 51.69240234 -57.54944336 51.09427734 -57.27319336 50.47802734 C-56.0865193 48.29204881 -54.98970223 46.87720141 -53.08569336 45.29052734 C-52.42569336 45.29052734 -51.76569336 45.29052734 -51.08569336 45.29052734 C-50.84850586 44.72462891 -50.61131836 44.15873047 -50.36694336 43.57568359 C-48.80470812 40.78937988 -46.88831893 38.9372022 -44.58569336 36.72802734 C-42.05760183 34.29432884 -40.03896402 32.22043333 -38.08569336 29.29052734 C-37.42569336 29.29052734 -36.76569336 29.29052734 -36.08569336 29.29052734 C-36.08569336 28.63052734 -36.08569336 27.97052734 -36.08569336 27.29052734 C-35.42569336 27.29052734 -34.76569336 27.29052734 -34.08569336 27.29052734 C-34.08569336 26.63052734 -34.08569336 25.97052734 -34.08569336 25.29052734 C-33.42569336 25.29052734 -32.76569336 25.29052734 -32.08569336 25.29052734 C-31.84850586 24.72849609 -31.61131836 24.16646484 -31.36694336 23.58740234 C-29.79621639 20.77158693 -27.87097871 18.81097318 -25.58569336 16.54052734 C-24.79163086 15.74130859 -23.99756836 14.94208984 -23.17944336 14.11865234 C-21.08569336 12.29052734 -21.08569336 12.29052734 -19.08569336 12.29052734 C-18.85881836 11.75427734 -18.63194336 11.21802734 -18.39819336 10.66552734 C-13.66960882 2.10904103 -9.38145549 -0.01114099 0 0 Z " fill="#FA572C" transform="translate(280.085693359375,3.70947265625)"/>
<path d="M0 0 C1.21734077 -0.0098568 1.21734077 -0.0098568 2.45927429 -0.01991272 C5.15147997 -0.03966236 7.84362983 -0.05131192 10.53588867 -0.0612793 C11.45454901 -0.06535482 12.37320934 -0.06943035 13.31970787 -0.07362938 C18.1818863 -0.0944971 23.04403645 -0.10879584 27.90625 -0.11816406 C32.93023468 -0.12923078 37.95377672 -0.16363164 42.97760487 -0.20333576 C46.83893156 -0.22947204 50.70015231 -0.23785323 54.56155968 -0.24144554 C56.41353025 -0.24631914 58.26549585 -0.25795511 60.11738014 -0.27648354 C62.71012132 -0.30081203 65.30171105 -0.29992172 67.89453125 -0.29296875 C68.65887482 -0.30577881 69.42321838 -0.31858887 70.21072388 -0.33178711 C73.89869683 -0.29575782 75.95956178 0.06011862 79.09233093 2.07429504 C82.30997786 5.37623793 82.98123691 8.64025419 83.14135742 13.17700195 C82.53502509 16.01885523 81.68119491 17.62830542 80.14135742 20.17700195 C79.15135742 20.50700195 78.16135742 20.83700195 77.14135742 21.17700195 C76.43326567 22.4888054 75.7720224 23.82626737 75.14135742 25.17700195 C65.50196893 37.39013145 65.50196893 37.39013145 60.14135742 39.17700195 C60.14135742 39.83700195 60.14135742 40.49700195 60.14135742 41.17700195 C59.48135742 41.17700195 58.82135742 41.17700195 58.14135742 41.17700195 C57.87323242 41.77512695 57.60510742 42.37325195 57.32885742 42.98950195 C56.14218336 45.17548049 55.0453663 46.59032789 53.14135742 48.17700195 C52.48135742 48.17700195 51.82135742 48.17700195 51.14135742 48.17700195 C50.83391602 48.97750977 50.83391602 48.97750977 50.52026367 49.79418945 C48.56303096 53.1763763 45.88166092 55.60737683 43.07885742 58.30200195 C39.13686802 61.87253562 39.13686802 61.87253562 36.14135742 66.17700195 C35.48135742 66.17700195 34.82135742 66.17700195 34.14135742 66.17700195 C34.14135742 66.83700195 34.14135742 67.49700195 34.14135742 68.17700195 C33.04459216 69.34231505 31.93586279 70.49807563 30.77807617 71.6027832 C29.52787579 72.80524324 28.3063348 74.0375702 27.09838867 75.2824707 C26.39069336 76.01079102 25.68299805 76.73911133 24.95385742 77.48950195 C24.27967773 78.18688477 23.60549805 78.88426758 22.91088867 79.6027832 C21.14135742 81.17700195 21.14135742 81.17700195 19.14135742 81.17700195 C18.91448242 81.71325195 18.68760742 82.24950195 18.45385742 82.80200195 C16.68565653 86.00160357 14.60465539 88.46737418 12.14135742 91.17700195 C11.48135742 91.17700195 10.82135742 91.17700195 10.14135742 91.17700195 C10.14135742 91.83700195 10.14135742 92.49700195 10.14135742 93.17700195 C5.83903184 97.94444381 5.83903184 97.94444381 2.14135742 99.17700195 C2.14135742 99.83700195 2.14135742 100.49700195 2.14135742 101.17700195 C1.48135742 101.17700195 0.82135742 101.17700195 0.14135742 101.17700195 C-0.18928711 101.9987793 -0.18928711 101.9987793 -0.52661133 102.8371582 C-2.27734386 105.91249189 -4.64811323 108.17858916 -7.17114258 110.61450195 C-7.64487305 111.07920898 -8.11860352 111.54391602 -8.60668945 112.02270508 C-10.94356908 114.31482914 -13.29325459 116.59103345 -15.66333008 118.84887695 C-18.04460266 121.37421229 -18.5666004 122.76984325 -18.85864258 126.17700195 C-18.17801758 126.67200195 -17.49739258 127.16700195 -16.79614258 127.67700195 C-13.74824474 130.27095756 -11.29178525 133.03926826 -8.70629883 136.0793457 C-6.3253717 138.78242787 -3.76053469 141.25873029 -1.14379883 143.73168945 C0.14135742 145.17700195 0.14135742 145.17700195 0.14135742 147.17700195 C0.80135742 147.17700195 1.46135742 147.17700195 2.14135742 147.17700195 C2.14135742 147.83700195 2.14135742 148.49700195 2.14135742 149.17700195 C3.13135742 149.50700195 4.12135742 149.83700195 5.14135742 150.17700195 C7.82885742 152.61450195 7.82885742 152.61450195 10.14135742 155.17700195 C10.14135742 155.83700195 10.14135742 156.49700195 10.14135742 157.17700195 C10.80135742 157.17700195 11.46135742 157.17700195 12.14135742 157.17700195 C13.86791992 158.85668945 13.86791992 158.85668945 15.76635742 161.05200195 C16.39799805 161.77129883 17.02963867 162.4905957 17.68041992 163.23168945 C19.14135742 165.17700195 19.14135742 165.17700195 19.14135742 167.17700195 C19.71756836 167.42579102 20.2937793 167.67458008 20.88745117 167.9309082 C23.46292454 169.35478343 25.161473 171.00128338 27.20385742 173.11450195 C27.87545898 173.80415039 28.54706055 174.49379883 29.23901367 175.2043457 C30.18067383 176.18081055 30.18067383 176.18081055 31.14135742 177.17700195 C31.71756836 177.71454102 32.2937793 178.25208008 32.88745117 178.8059082 C34.14135742 180.17700195 34.14135742 180.17700195 34.14135742 182.17700195 C34.80135742 182.17700195 35.46135742 182.17700195 36.14135742 182.17700195 C37.58666992 183.64575195 37.58666992 183.64575195 39.26635742 185.67700195 C42.52029624 189.52692535 45.9890846 193.0376453 49.63745117 196.51293945 C51.14135742 198.17700195 51.14135742 198.17700195 51.14135742 200.17700195 C51.73948242 200.44512695 52.33760742 200.71325195 52.95385742 200.98950195 C55.13983596 202.17617602 56.55468336 203.27299308 58.14135742 205.17700195 C58.14135742 205.83700195 58.14135742 206.49700195 58.14135742 207.17700195 C58.80135742 207.17700195 59.46135742 207.17700195 60.14135742 207.17700195 C60.14135742 207.83700195 60.14135742 208.49700195 60.14135742 209.17700195 C61.13135742 209.50700195 62.12135742 209.83700195 63.14135742 210.17700195 C64.71948242 211.77856445 64.71948242 211.77856445 66.39135742 213.80200195 C69.36790552 217.33070289 72.50233259 220.56209936 75.85620117 223.73168945 C77.14135742 225.17700195 77.14135742 225.17700195 77.14135742 227.17700195 C78.13135742 227.50700195 79.12135742 227.83700195 80.14135742 228.17700195 C83.17621004 233.20020629 83.38262265 236.38673261 82.17260742 242.0637207 C80.68197599 245.11838587 78.99932155 246.33002015 76.14135742 248.17700195 C73.29527367 248.57928156 70.83342705 248.75493382 67.98974609 248.7421875 C66.77897652 248.75992973 66.77897652 248.75992973 65.54374695 248.7780304 C62.88199492 248.81085993 60.22126719 248.81387442 57.55932617 248.8137207 C55.70233241 248.82403973 53.84534265 248.83510335 51.98835754 248.84687805 C48.09711213 248.86630292 44.20622604 248.86973474 40.31494141 248.86328125 C35.34123205 248.85729066 30.36939265 248.90148489 25.39606762 248.95917034 C21.56027193 248.99624155 17.7249237 249.00106679 13.88897133 248.99689674 C12.05620479 248.99976064 10.22341904 249.01377167 8.39082909 249.0393734 C-7.71951554 249.2407615 -7.71951554 249.2407615 -12.85742188 244.81298828 C-13.89767362 243.63501408 -14.90275773 242.4244117 -15.85864258 241.17700195 C-16.69399284 240.38388863 -16.69399284 240.38388863 -17.54621887 239.57475281 C-18.85864258 238.17700195 -18.85864258 238.17700195 -18.85864258 236.17700195 C-19.49801758 235.90887695 -20.13739258 235.64075195 -20.79614258 235.36450195 C-22.85864258 234.17700195 -22.85864258 234.17700195 -23.85864258 231.17700195 C-24.51864258 231.17700195 -25.17864258 231.17700195 -25.85864258 231.17700195 C-25.85864258 230.51700195 -25.85864258 229.85700195 -25.85864258 229.17700195 C-26.72489258 228.80575195 -26.72489258 228.80575195 -27.60864258 228.42700195 C-30.18804237 226.99400207 -31.9198585 225.39275519 -33.85864258 223.17700195 C-33.85864258 222.51700195 -33.85864258 221.85700195 -33.85864258 221.17700195 C-34.51864258 221.17700195 -35.17864258 221.17700195 -35.85864258 221.17700195 C-37.58520508 219.49731445 -37.58520508 219.49731445 -39.48364258 217.30200195 C-40.1152832 216.58270508 -40.74692383 215.8634082 -41.39770508 215.12231445 C-42.85864258 213.17700195 -42.85864258 213.17700195 -42.85864258 211.17700195 C-43.72489258 210.80575195 -43.72489258 210.80575195 -44.60864258 210.42700195 C-47.18804237 208.99400207 -48.9198585 207.39275519 -50.85864258 205.17700195 C-50.85864258 204.51700195 -50.85864258 203.85700195 -50.85864258 203.17700195 C-51.49801758 202.90887695 -52.13739258 202.64075195 -52.79614258 202.36450195 C-54.85864258 201.17700195 -54.85864258 201.17700195 -55.85864258 198.17700195 C-56.51864258 198.17700195 -57.17864258 198.17700195 -57.85864258 198.17700195 C-57.85864258 197.51700195 -57.85864258 196.85700195 -57.85864258 196.17700195 C-58.51864258 196.17700195 -59.17864258 196.17700195 -59.85864258 196.17700195 C-59.85864258 195.51700195 -59.85864258 194.85700195 -59.85864258 194.17700195 C-60.84864258 193.84700195 -61.83864258 193.51700195 -62.85864258 193.17700195 C-64.50708008 191.50512695 -64.50708008 191.50512695 -66.23364258 189.42700195 C-68.33639884 186.93583849 -70.43444358 184.54931667 -72.79614258 182.30200195 C-74.85864258 180.17700195 -74.85864258 180.17700195 -74.85864258 178.17700195 C-75.51864258 178.17700195 -76.17864258 178.17700195 -76.85864258 178.17700195 C-76.85864258 177.51700195 -76.85864258 176.85700195 -76.85864258 176.17700195 C-77.51864258 176.17700195 -78.17864258 176.17700195 -78.85864258 176.17700195 C-78.85864258 175.51700195 -78.85864258 174.85700195 -78.85864258 174.17700195 C-79.84864258 173.84700195 -80.83864258 173.51700195 -81.85864258 173.17700195 C-81.85864258 172.51700195 -81.85864258 171.85700195 -81.85864258 171.17700195 C-82.51864258 171.17700195 -83.17864258 171.17700195 -83.85864258 171.17700195 C-83.85864258 170.51700195 -83.85864258 169.85700195 -83.85864258 169.17700195 C-84.72489258 168.80575195 -84.72489258 168.80575195 -85.60864258 168.42700195 C-88.18804237 166.99400207 -89.9198585 165.39275519 -91.85864258 163.17700195 C-91.85864258 162.51700195 -91.85864258 161.85700195 -91.85864258 161.17700195 C-92.51864258 161.17700195 -93.17864258 161.17700195 -93.85864258 161.17700195 C-95.58520508 159.49731445 -95.58520508 159.49731445 -97.48364258 157.30200195 C-98.1152832 156.58270508 -98.74692383 155.8634082 -99.39770508 155.12231445 C-100.85864258 153.17700195 -100.85864258 153.17700195 -100.85864258 151.17700195 C-101.72489258 150.83668945 -101.72489258 150.83668945 -102.60864258 150.48950195 C-105.42291871 148.84784088 -106.88601991 146.74141143 -108.85864258 144.17700195 C-109.51864258 143.84700195 -110.17864258 143.51700195 -110.85864258 143.17700195 C-110.85864258 142.51700195 -110.85864258 141.85700195 -110.85864258 141.17700195 C-111.51864258 141.17700195 -112.17864258 141.17700195 -112.85864258 141.17700195 C-114.48364258 139.80200195 -114.48364258 139.80200195 -115.85864258 138.17700195 C-115.85864258 137.51700195 -115.85864258 136.85700195 -115.85864258 136.17700195 C-116.51864258 136.17700195 -117.17864258 136.17700195 -117.85864258 136.17700195 C-117.85864258 135.51700195 -117.85864258 134.85700195 -117.85864258 134.17700195 C-118.51864258 134.17700195 -119.17864258 134.17700195 -119.85864258 134.17700195 C-122.10171012 131.90110903 -122.81530117 130.48973995 -123.25708008 127.30200195 C-123.24547852 125.75512695 -123.24547852 125.75512695 -123.23364258 124.17700195 C-123.24137695 123.14575195 -123.24911133 122.11450195 -123.25708008 121.05200195 C-122.81530117 117.86426396 -122.10171012 116.45289487 -119.85864258 114.17700195 C-119.19864258 114.17700195 -118.53864258 114.17700195 -117.85864258 114.17700195 C-117.85864258 113.51700195 -117.85864258 112.85700195 -117.85864258 112.17700195 C-117.19864258 112.17700195 -116.53864258 112.17700195 -115.85864258 112.17700195 C-115.85864258 111.51700195 -115.85864258 110.85700195 -115.85864258 110.17700195 C-114.48364258 108.55200195 -114.48364258 108.55200195 -112.85864258 107.17700195 C-112.19864258 107.17700195 -111.53864258 107.17700195 -110.85864258 107.17700195 C-110.85864258 106.51700195 -110.85864258 105.85700195 -110.85864258 105.17700195 C-109.23639718 103.46706762 -107.56450833 101.80352511 -105.85864258 100.17700195 C-105.30176758 99.57887695 -104.74489258 98.98075195 -104.17114258 98.36450195 C-102.85864258 97.17700195 -102.85864258 97.17700195 -100.85864258 97.17700195 C-100.63176758 96.64075195 -100.40489258 96.10450195 -100.17114258 95.55200195 C-98.40294169 92.35240034 -96.32194055 89.88662972 -93.85864258 87.17700195 C-93.19864258 87.17700195 -92.53864258 87.17700195 -91.85864258 87.17700195 C-91.85864258 86.51700195 -91.85864258 85.85700195 -91.85864258 85.17700195 C-87.556317 80.40956009 -87.556317 80.40956009 -83.85864258 79.17700195 C-83.85864258 78.51700195 -83.85864258 77.85700195 -83.85864258 77.17700195 C-83.19864258 77.17700195 -82.53864258 77.17700195 -81.85864258 77.17700195 C-81.36364258 75.69200195 -81.36364258 75.69200195 -80.85864258 74.17700195 C-80.19864258 74.17700195 -79.53864258 74.17700195 -78.85864258 74.17700195 C-78.85864258 73.51700195 -78.85864258 72.85700195 -78.85864258 72.17700195 C-78.19864258 72.17700195 -77.53864258 72.17700195 -76.85864258 72.17700195 C-76.64208008 71.63172852 -76.42551758 71.08645508 -76.20239258 70.5246582 C-74.40726522 67.38840371 -71.94541797 65.09098848 -69.35864258 62.61450195 C-66.57492502 59.92789082 -64.01971036 57.41860363 -61.85864258 54.17700195 C-61.19864258 54.17700195 -60.53864258 54.17700195 -59.85864258 54.17700195 C-59.85864258 53.51700195 -59.85864258 52.85700195 -59.85864258 52.17700195 C-59.19864258 52.17700195 -58.53864258 52.17700195 -57.85864258 52.17700195 C-57.59051758 51.57887695 -57.32239258 50.98075195 -57.04614258 50.36450195 C-55.85946852 48.17852342 -54.76265145 46.76367601 -52.85864258 45.17700195 C-52.19864258 45.17700195 -51.53864258 45.17700195 -50.85864258 45.17700195 C-50.65368164 44.64333008 -50.4487207 44.1096582 -50.23754883 43.55981445 C-48.28031611 40.17762761 -45.59894608 37.74662707 -42.79614258 35.05200195 C-38.85415318 31.48146829 -38.85415318 31.48146829 -35.85864258 27.17700195 C-35.19864258 27.17700195 -34.53864258 27.17700195 -33.85864258 27.17700195 C-33.85864258 26.51700195 -33.85864258 25.85700195 -33.85864258 25.17700195 C-29.556317 20.40956009 -29.556317 20.40956009 -25.85864258 19.17700195 C-25.15713106 17.86166785 -24.49338332 16.52582604 -23.85864258 15.17700195 C-22.35864258 13.42700195 -22.35864258 13.42700195 -20.85864258 12.17700195 C-20.19864258 12.17700195 -19.53864258 12.17700195 -18.85864258 12.17700195 C-18.60083008 11.59305664 -18.34301758 11.00911133 -18.07739258 10.4074707 C-16.76165894 7.99950946 -15.31705665 6.40227502 -13.35864258 4.48950195 C-12.75020508 3.88750977 -12.14176758 3.28551758 -11.51489258 2.6652832 C-8.0182234 -0.47677094 -4.46305681 0.01557694 0 0 Z " fill="#FA582C" transform="translate(122.858642578125,3.822998046875)"/>
<path d="M0 0 C0.96472733 -0.01283524 1.92945465 -0.02567047 2.92341614 -0.03889465 C4.49212715 -0.04997505 4.49212715 -0.04997505 6.0925293 -0.0612793 C7.16544724 -0.06935104 8.23836517 -0.07742279 9.34379578 -0.08573914 C11.61768982 -0.09958665 13.89160471 -0.11030581 16.16552734 -0.11816406 C19.64224666 -0.13537674 23.11801524 -0.17925793 26.59448242 -0.22338867 C28.80215771 -0.23351539 31.00984109 -0.24203156 33.2175293 -0.2487793 C34.25726395 -0.26628738 35.2969986 -0.28379547 36.36824036 -0.30183411 C43.60099652 -0.28011344 43.60099652 -0.28011344 47.48779297 2.07861328 C51.12145111 6.16380514 50.5024776 10.12409611 50.50141907 15.34333801 C50.50509576 16.30523739 50.50877244 17.26713677 50.51256055 18.25818461 C50.52362921 21.50171822 50.52744659 24.74521983 50.53125 27.98876953 C50.53751218 30.30604658 50.54415876 32.62332261 50.55116272 34.94059753 C50.56859383 41.25052745 50.57912995 47.56044977 50.58736825 53.87039781 C50.59251328 57.80927237 50.59858919 61.74814455 50.60487938 65.68701744 C50.62175127 76.5893226 50.63638677 87.49162483 50.64362812 98.39394093 C50.64553806 101.22372756 50.64745839 104.05351418 50.64941406 106.88330078 C50.6498978 107.58664331 50.65038154 108.28998584 50.65087994 109.01464178 C50.65918258 120.41167318 50.68452323 131.80859969 50.71699474 143.20558528 C50.75004935 154.90243512 50.7677425 166.59922621 50.77127236 178.29612273 C50.77362763 184.86523325 50.78265012 191.43417801 50.80773354 198.0032444 C50.83094261 204.18134732 50.8352763 210.3591745 50.82497215 216.53730965 C50.82447496 218.80731369 50.83084916 221.07733097 50.8445282 223.34729385 C50.86213537 226.44176827 50.85519574 229.5352411 50.84199524 232.62971497 C50.85296449 233.53205032 50.86393373 234.43438567 50.87523538 235.36406451 C50.83247078 239.50453919 50.69831985 241.62911784 48.44876385 245.21120739 C45.41605854 248.05753379 43.76309385 248.30709874 39.70849609 248.35400391 C38.74376877 248.36683914 37.77904144 248.37967438 36.78507996 248.39289856 C35.73927261 248.40028549 34.69346527 248.40767242 33.6159668 248.4152832 C32.54304886 248.42335495 31.47013092 248.4314267 30.36470032 248.43974304 C28.09080627 248.45359056 25.81689138 248.46430971 23.54296875 248.47216797 C20.06624943 248.48938065 16.59048085 248.53326183 13.11401367 248.57739258 C10.90633838 248.5875193 8.698655 248.59603547 6.4909668 248.6027832 C5.45123215 248.62029129 4.4114975 248.63779938 3.34025574 248.65583801 C-3.89250043 248.63411735 -3.89250043 248.63411735 -7.77929688 246.27539062 C-11.41295502 242.19019877 -10.7939815 238.2299078 -10.79292297 233.01066589 C-10.79659966 232.04876652 -10.80027635 231.08686714 -10.80406445 230.09581929 C-10.81513312 226.85228569 -10.8189505 223.60878407 -10.82275391 220.36523438 C-10.82901609 218.04795733 -10.83566267 215.73068129 -10.84266663 213.41340637 C-10.86009773 207.10347646 -10.87063386 200.79355414 -10.87887216 194.4836061 C-10.88401719 190.54473154 -10.8900931 186.60585935 -10.89638329 182.66698647 C-10.91325518 171.76468131 -10.92789067 160.86237907 -10.93513203 149.96006298 C-10.93704197 147.13027635 -10.93896229 144.30048973 -10.94091797 141.47070312 C-10.94140171 140.76736059 -10.94188545 140.06401806 -10.94238385 139.33936212 C-10.95068648 127.94233073 -10.97602714 116.54540421 -11.00849865 105.14841863 C-11.04155326 93.45156879 -11.05924641 81.75477769 -11.06277627 70.05788118 C-11.06513153 63.48877066 -11.07415402 56.9198259 -11.09923744 50.35075951 C-11.12244652 44.17265659 -11.1267802 37.9948294 -11.11647606 31.81669426 C-11.11597886 29.54669022 -11.12235306 27.27667293 -11.1360321 25.00671005 C-11.15363927 21.91223564 -11.14669965 18.8187628 -11.13349915 15.72428894 C-11.14446839 14.82195359 -11.15543764 13.91961824 -11.16673928 12.98993939 C-11.12397468 8.84946471 -10.98982375 6.72488607 -8.74026775 3.14279652 C-5.70756244 0.29647012 -4.05459776 0.04690517 0 0 Z " fill="#000000" transform="translate(685.645751953125,-0.177001953125)"/>
<path d="M0 0 C3.3 0 6.6 0 10 0 C11 2.5 11 2.5 11 6 C8.68587022 9.06718389 6.0324624 11.64341186 3 14 C2.34 14 1.68 14 1 14 C0.62875 14.928125 0.62875 14.928125 0.25 15.875 C-1.23740369 18.40358627 -2.43678009 18.71839004 -5 20 C-5.28875 20.598125 -5.5775 21.19625 -5.875 21.8125 C-7.06031333 24.11727591 -8.07176237 25.02200699 -10.0625 26.625 C-13.00824713 28.67119397 -13.00824713 28.67119397 -14 31 C-14.99 31 -15.98 31 -17 31 C-17.33 31.99 -17.66 32.98 -18 34 C-18.66 34 -19.32 34 -20 34 C-20.226875 34.556875 -20.45375 35.11375 -20.6875 35.6875 C-23.11873077 39.97109708 -26.89824605 43.31264396 -31 46 C-31.66 46 -32.32 46 -33 46 C-33 46.99 -33 47.98 -33 49 C-34.65 49.66 -36.3 50.32 -38 51 C-38 51.66 -38 52.32 -38 53 C-38.66 53 -39.32 53 -40 53 C-40.2475 53.5775 -40.495 54.155 -40.75 54.75 C-42.18299988 57.32939979 -43.78424676 59.06121592 -46 61 C-46.66 61 -47.32 61 -48 61 C-48 61.66 -48 62.32 -48 63 C-49.61457079 64.43581474 -51.29219075 65.80144783 -53 67.125 C-53.928125 67.84945312 -54.85625 68.57390625 -55.8125 69.3203125 C-56.534375 69.87460938 -57.25625 70.42890625 -58 71 C-57.505 71.45375 -57.01 71.9075 -56.5 72.375 C-55 74 -55 74 -55 76 C-54.46632813 76.20496094 -53.93265625 76.40992188 -53.3828125 76.62109375 C-50.00062566 78.57832646 -47.56962512 81.2596965 -44.875 84.0625 C-41.30446634 88.0044894 -41.30446634 88.0044894 -37 91 C-37 91.66 -37 92.32 -37 93 C-35.68 93.66 -34.36 94.32 -33 95 C-33 95.66 -33 96.32 -33 97 C-32.071875 97.37125 -32.071875 97.37125 -31.125 97.75 C-29 99 -29 99 -28.0625 101 C-26.59325713 103.76563364 -24.87182388 103.86462777 -22 105 C-19.31861064 107.41325043 -17.08037913 109.89597995 -14.875 112.75 C-11.68804188 116.67787513 -7.67367078 119.63773974 -3.71875 122.75390625 C-0.96699731 125.02726515 1.49795198 127.45720201 4 130 C4.67804688 130.59683594 5.35609375 131.19367188 6.0546875 131.80859375 C7.895255 133.45562519 9.52287912 135.01743363 11 137 C11.0625 140.375 11.0625 140.375 10 143 C7.29120665 144.35439668 4.99066732 144.06501451 2 144 C1.67 143.01 1.34 142.02 1 141 C0.401875 140.87625 -0.19625 140.7525 -0.8125 140.625 C-4.00215913 139.71366882 -5.009177 137.5941027 -7 135 C-7.9075 134.278125 -8.815 133.55625 -9.75 132.8125 C-10.4925 132.214375 -11.235 131.61625 -12 131 C-12 130.34 -12 129.68 -12 129 C-13.65 128.34 -15.3 127.68 -17 127 C-17 126.34 -17 125.68 -17 125 C-17.66 125 -18.32 125 -19 125 C-23.61165049 120.84951456 -23.61165049 120.84951456 -25 117.8125 C-26.4257159 115.22838994 -28.29268033 115.07033568 -31 114 C-34.08848297 111.27064296 -36.4356518 108.83976377 -38 105 C-38.66 105 -39.32 105 -40 105 C-40 104.34 -40 103.68 -40 103 C-40.598125 102.731875 -41.19625 102.46375 -41.8125 102.1875 C-43.99847854 101.00082594 -45.41332594 99.90400887 -47 98 C-47 97.34 -47 96.68 -47 96 C-47.5775 95.9175 -48.155 95.835 -48.75 95.75 C-51.6539336 94.78202213 -53.03740604 93.31305716 -55 91 C-55 90.34 -55 89.68 -55 89 C-55.66 89 -56.32 89 -57 89 C-58.34919532 87.34614767 -59.68133728 85.678298 -61 84 C-61.99 83.34 -62.98 82.68 -64 82 C-64 81.34 -64 80.68 -64 80 C-64.598125 79.71125 -65.19625 79.4225 -65.8125 79.125 C-68 78 -68 78 -71 76 C-71.66920152 68.97338403 -71.66920152 68.97338403 -69.625 66 C-68 65 -68 65 -66 65 C-66 64.34 -66 63.68 -66 63 C-65.34 63 -64.68 63 -64 63 C-63.773125 62.443125 -63.54625 61.88625 -63.3125 61.3125 C-61.62449964 58.33840412 -59.53323483 56.27991135 -57 54 C-56.34 54 -55.68 54 -55 54 C-55 53.34 -55 52.68 -55 52 C-53.515 51.505 -53.515 51.505 -52 51 C-50.62926214 49.36395804 -49.29944744 47.69321939 -48 46 C-45.875 43.6875 -45.875 43.6875 -44 42 C-43.34 42 -42.68 42 -42 42 C-42 41.34 -42 40.68 -42 40 C-40.56719535 38.76712158 -39.12835485 37.54018388 -37.65234375 36.359375 C-34.45626519 33.72997704 -31.65276414 30.69006495 -28.8125 27.6875 C-27 26 -27 26 -25 26 C-24.505 24.515 -24.505 24.515 -24 23 C-22.53957977 21.73430247 -21.07403635 20.47270862 -19.55859375 19.2734375 C-17.8174997 17.90018565 -17.8174997 17.90018565 -15.75 15.6875 C-14 14 -14 14 -12 14 C-11.67 13.01 -11.34 12.02 -11 11 C-10.34 11 -9.68 11 -9 11 C-8.67 10.01 -8.34 9.02 -8 8 C-6.0625 5.8125 -6.0625 5.8125 -4 4 C-3.34 4 -2.68 4 -2 4 C-2 3.34 -2 2.68 -2 2 C-1.34 2 -0.68 2 0 2 C0 1.34 0 0.68 0 0 Z " fill="#000000" transform="translate(384,57)"/>
<path d="M0 0 C3.60409919 -0.05800828 7.20807851 -0.09359869 10.8125 -0.125 C12.34874023 -0.15013672 12.34874023 -0.15013672 13.91601562 -0.17578125 C14.89892578 -0.18222656 15.88183594 -0.18867188 16.89453125 -0.1953125 C17.80050049 -0.20578613 18.70646973 -0.21625977 19.63989258 -0.22705078 C22 0 22 0 25 2 C25 2.66 25 3.32 25 4 C25.66 4 26.32 4 27 4 C29.99298825 6.76275839 32.76273815 9.58523191 35 13 C35 13.66 35 14.32 35 15 C35.66 15 36.32 15 37 15 C39.625 17.375 39.625 17.375 42 20 C42 20.66 42 21.32 42 22 C42.66 22 43.32 22 44 22 C44.28875 22.639375 44.5775 23.27875 44.875 23.9375 C45.82823451 26.15206079 45.82823451 26.15206079 48 27 C48.1875 30.375 48.1875 30.375 48 34 C47.01 34.66 46.02 35.32 45 36 C43.98133771 37.65532623 42.98189187 39.32260138 42 41 C40.4375 42.8125 40.4375 42.8125 39 44 C38.34 44 37.68 44 37 44 C37 44.66 37 45.32 37 46 C36.34 46 35.68 46 35 46 C34.9071875 46.86625 34.9071875 46.86625 34.8125 47.75 C33.6716636 50.90923925 31.64391431 51.94362221 29 54 C28.19874815 55.20281164 27.39800422 56.40596173 26.59765625 57.609375 C24.51982782 60.07273362 23.45572054 60.90514469 20.26586914 61.5690918 C17.02688579 61.68865757 13.86136429 61.61094473 10.625 61.4375 C9.50738281 61.40591797 8.38976563 61.37433594 7.23828125 61.34179688 C4.48947428 61.25956761 1.74610864 61.14471617 -1 61 C-1.21597764 56.20077585 -0.22267112 54.40801247 2.875 50.6875 C3.59429688 49.80449219 4.31359375 48.92148438 5.0546875 48.01171875 C5.69664063 47.34785156 6.33859375 46.68398437 7 46 C7.66 46 8.32 46 9 46 C9.2475 45.443125 9.495 44.88625 9.75 44.3125 C11.56239774 40.95956419 13.53114492 37.73442754 17 36 C17.33 35.01 17.66 34.02 18 33 C18.66 33 19.32 33 20 33 C20 31.35 20 29.7 20 28 C19.34 28 18.68 28 18 28 C16.60400604 26.47162731 15.28412351 24.87349901 14 23.25 C11.4425441 20.02610609 8.88965968 16.84263732 6.1484375 13.7734375 C5.68566406 13.24717773 5.22289062 12.72091797 4.74609375 12.17871094 C3.4300624 10.68739621 2.10199596 9.20672823 0.7734375 7.7265625 C-1 5 -1 5 -0.61083984 2.32958984 C-0.4092627 1.5608252 -0.20768555 0.79206055 0 0 Z " fill="#000000" transform="translate(1285,187)"/>
</svg>
